<svg width="30" height="30" viewBox="0 0 30 30" fill="none" xmlns="http://www.w3.org/2000/svg">
<path d="M26.25 4.99998H2.5V7.49998H5.375L9.475 18.75C9.73289 19.4794 10.2101 20.1112 10.8412 20.5588C11.4722 21.0064 12.2263 21.2478 13 21.25H23.75V18.75H13C12.7431 18.7499 12.4925 18.6706 12.2822 18.523C12.072 18.3754 11.9123 18.1666 11.825 17.925L11.25 16.25H22.85C23.3925 16.2492 23.9201 16.0719 24.353 15.745C24.786 15.418 25.1008 14.9591 25.25 14.4375L27.5 6.58748C27.5508 6.42333 27.5672 6.25047 27.5482 6.0797C27.5293 5.90892 27.4753 5.74389 27.3896 5.59492C27.304 5.44594 27.1886 5.31622 27.0506 5.21386C26.9125 5.1115 26.7549 5.03869 26.5875 4.99998C26.4757 4.98178 26.3618 4.98178 26.25 4.99998ZM22.8125 13.75H10.3125L8.0375 7.49998H24.5875L22.8125 13.75Z" fill="#687082"/>
<path d="M13.125 26.25C14.1605 26.25 15 25.4105 15 24.375C15 23.3395 14.1605 22.5 13.125 22.5C12.0895 22.5 11.25 23.3395 11.25 24.375C11.25 25.4105 12.0895 26.25 13.125 26.25Z" fill="#687082"/>
<path d="M20.625 26.25C21.6605 26.25 22.5 25.4105 22.5 24.375C22.5 23.3395 21.6605 22.5 20.625 22.5C19.5895 22.5 18.75 23.3395 18.75 24.375C18.75 25.4105 19.5895 26.25 20.625 26.25Z" fill="#687082"/>
</svg>
