<svg width="24" height="25" viewBox="0 0 24 25" fill="none" xmlns="http://www.w3.org/2000/svg">
<path d="M13.2125 1.2375C12.8738 0.950318 12.4441 0.792694 12 0.792694C11.5559 0.792694 11.1262 0.950318 10.7875 1.2375L1.4125 9.19125C1.20491 9.36724 1.03811 9.58632 0.92371 9.83326C0.809305 10.0802 0.750029 10.3491 0.75 10.6212V22.375C0.75 22.8723 0.947544 23.3492 1.29917 23.7008C1.65081 24.0525 2.12772 24.25 2.625 24.25H8.5625C8.81114 24.25 9.0496 24.1512 9.22541 23.9754C9.40123 23.7996 9.5 23.5611 9.5 23.3125V15.5H14.5V23.3125C14.5 23.83 14.92 24.25 15.4375 24.25H21.375C21.8723 24.25 22.3492 24.0525 22.7008 23.7008C23.0525 23.3492 23.25 22.8723 23.25 22.375V10.6212C23.25 10.3491 23.1907 10.0802 23.0763 9.83326C22.9619 9.58632 22.7951 9.36724 22.5875 9.19125L13.2125 1.2375Z" fill="#9099AD"/>
</svg>
