<svg width="222" height="24" viewBox="0 0 222 24" fill="none" xmlns="http://www.w3.org/2000/svg">
<path fill-rule="evenodd" clip-rule="evenodd" d="M204.65 6C203.653 6 203 6.65489 203 7.51533C203 8.35749 203.634 9.0313 204.612 9.0313H204.631C205.648 9.0313 206.281 8.35749 206.281 7.51533C206.261 6.65489 205.648 6 204.65 6ZM216.604 13.9697V19H213.688V14.3068C213.688 13.1284 213.267 12.3236 212.211 12.3236C211.405 12.3236 210.926 12.8654 210.715 13.39C210.638 13.5775 210.618 13.8378 210.618 14.1008V18.9998H207.701C207.701 18.9998 207.741 11.051 207.701 10.2282H210.618V11.4712C210.616 11.4758 210.612 11.4803 210.609 11.4848L210.609 11.4848C210.605 11.4899 210.602 11.495 210.599 11.4999H210.618V11.4712C211.006 10.8748 211.697 10.0222 213.247 10.0222C215.166 10.0222 216.604 11.2759 216.604 13.9697ZM206.089 19H203.173V10.2282H206.089V19Z" fill="#CAD0DC"/>
<mask id="mask0_338_2766" style="mask-type:alpha" maskUnits="userSpaceOnUse" x="203" y="6" width="14" height="13">
<path fill-rule="evenodd" clip-rule="evenodd" d="M204.65 6C203.653 6 203 6.65489 203 7.51533C203 8.35749 203.634 9.0313 204.612 9.0313H204.631C205.648 9.0313 206.281 8.35749 206.281 7.51533C206.261 6.65489 205.648 6 204.65 6ZM216.604 13.9697V19H213.688V14.3068C213.688 13.1284 213.267 12.3236 212.211 12.3236C211.405 12.3236 210.926 12.8654 210.715 13.39C210.638 13.5775 210.618 13.8378 210.618 14.1008V18.9998H207.701C207.701 18.9998 207.741 11.051 207.701 10.2282H210.618V11.4712C210.616 11.4758 210.612 11.4803 210.609 11.4848L210.609 11.4848C210.605 11.4899 210.602 11.495 210.599 11.4999H210.618V11.4712C211.006 10.8748 211.697 10.0222 213.247 10.0222C215.166 10.0222 216.604 11.2759 216.604 13.9697ZM206.089 19H203.173V10.2282H206.089V19Z" fill="white"/>
</mask>
<g mask="url(#mask0_338_2766)">
<rect x="198" width="24" height="24" fill="#37393B"/>
</g>
<path fill-rule="evenodd" clip-rule="evenodd" d="M151 16.2941V10.563V7.70541C151 6.21314 149.786 5 148.294 5H139.705C138.213 5 137 6.21314 137 7.70541V10.563V16.2941C137 17.7869 138.213 19 139.705 19H148.294C149.786 19 151 17.7869 151 16.2941ZM146.464 11.9993C146.464 13.3582 145.357 14.4632 143.999 14.4632C142.641 14.4632 141.535 13.3577 141.536 11.9988C141.537 11.4623 141.711 10.9671 142.002 10.5625C142.451 9.94182 143.178 9.53529 144.001 9.53529C144.823 9.53529 145.551 9.94231 145.998 10.563C146.289 10.9676 146.464 11.4628 146.464 11.9993ZM149.38 8.98499V6.91961V6.61224L149.071 6.61323L147.007 6.61967L147.015 8.99292L149.38 8.98499ZM144 15.8281C146.111 15.8281 147.829 14.1097 147.829 11.9993C147.829 11.4916 147.726 11.0062 147.544 10.563H149.635V16.2941C149.635 17.0348 149.032 17.6347 148.293 17.6347H139.705C138.965 17.6347 138.363 17.0348 138.363 16.2941V10.563H140.453C140.273 11.0062 140.171 11.4916 140.171 11.9993C140.171 14.1097 141.888 15.8281 144 15.8281Z" fill="#37393B"/>
<mask id="mask1_338_2766" style="mask-type:alpha" maskUnits="userSpaceOnUse" x="137" y="5" width="14" height="14">
<path fill-rule="evenodd" clip-rule="evenodd" d="M151 16.2941V10.563V7.70541C151 6.21314 149.786 5 148.294 5H139.705C138.213 5 137 6.21314 137 7.70541V10.563V16.2941C137 17.7869 138.213 19 139.705 19H148.294C149.786 19 151 17.7869 151 16.2941ZM146.464 11.9993C146.464 13.3582 145.357 14.4632 143.999 14.4632C142.641 14.4632 141.535 13.3577 141.536 11.9988C141.537 11.4623 141.711 10.9671 142.002 10.5625C142.451 9.94182 143.178 9.53529 144.001 9.53529C144.823 9.53529 145.551 9.94231 145.998 10.563C146.289 10.9676 146.464 11.4628 146.464 11.9993ZM149.38 8.98499V6.91961V6.61224L149.071 6.61323L147.007 6.61967L147.015 8.99292L149.38 8.98499ZM144 15.8281C146.111 15.8281 147.829 14.1097 147.829 11.9993C147.829 11.4916 147.726 11.0062 147.544 10.563H149.635V16.2941C149.635 17.0348 149.032 17.6347 148.293 17.6347H139.705C138.965 17.6347 138.363 17.0348 138.363 16.2941V10.563H140.453C140.273 11.0062 140.171 11.4916 140.171 11.9993C140.171 14.1097 141.888 15.8281 144 15.8281Z" fill="white"/>
</mask>
<g mask="url(#mask1_338_2766)">
<rect x="132" width="24" height="24" fill="#37393B"/>
</g>
<path d="M81.2525 12.0056H79.2901C79.2901 15.1408 79.2901 19 79.2901 19H76.3823C76.3823 19 76.3823 15.1782 76.3823 12.0056H75V9.53354H76.3823V7.93458C76.3823 6.78942 76.9264 5 79.3168 5L81.4716 5.00826V7.40791C81.4716 7.40791 80.1622 7.40791 79.9077 7.40791C79.6531 7.40791 79.2911 7.53521 79.2911 8.08131V9.53403H81.5066L81.2525 12.0056Z" fill="#CAD0DC"/>
<mask id="mask2_338_2766" style="mask-type:alpha" maskUnits="userSpaceOnUse" x="75" y="5" width="7" height="14">
<path d="M81.2525 12.0056H79.2901C79.2901 15.1408 79.2901 19 79.2901 19H76.3823C76.3823 19 76.3823 15.1782 76.3823 12.0056H75V9.53354H76.3823V7.93458C76.3823 6.78942 76.9264 5 79.3168 5L81.4716 5.00826V7.40791C81.4716 7.40791 80.1622 7.40791 79.9077 7.40791C79.6531 7.40791 79.2911 7.53521 79.2911 8.08131V9.53403H81.5066L81.2525 12.0056Z" fill="white"/>
</mask>
<g mask="url(#mask2_338_2766)">
<rect x="66" width="24" height="24" fill="#37393B"/>
</g>
<path fill-rule="evenodd" clip-rule="evenodd" d="M18.5076 6.49288L18.4704 6.46808C17.7014 5.73634 16.7961 5.38907 15.7543 5.43868L15.7171 5.36426L15.7419 5.35186C16.6844 5.14102 17.2426 4.91778 17.4162 4.66973C17.4658 4.47129 17.4038 4.35967 17.1929 4.33486C16.7217 4.39688 16.2752 4.4961 15.8907 4.65733C16.3868 4.33486 16.5728 4.11162 16.4612 4C15.9775 4.0124 15.4442 4.26045 14.8985 4.75655C15.0969 4.40928 15.1838 4.21084 15.1341 4.18604C14.8613 4.35967 14.638 4.55811 14.4396 4.76895C14.0179 5.24024 13.6831 5.67432 13.4226 6.0712L13.4102 6.09601C12.7529 7.17501 12.2816 8.25402 12.0087 9.35784L11.9095 9.44465L11.8847 9.45706C11.4878 8.96096 11.0041 8.53928 10.4336 8.20441C9.7639 7.75793 8.97015 7.34865 8.05237 6.93937C7.06018 6.41847 6.04318 5.99679 5.02619 5.66192C5.01378 6.81535 5.58429 7.72072 6.68811 8.39045V8.40285C6.30363 8.40285 5.91916 8.46486 5.54709 8.57649C5.6215 9.64309 6.37805 10.3748 7.80432 10.7717L7.79192 10.7965C7.23381 10.7593 6.77492 10.9577 6.41526 11.367C6.88655 12.2848 7.71751 12.7189 8.92054 12.6941C8.68489 12.8181 8.49886 12.9421 8.37484 13.091C8.15159 13.3266 8.07718 13.5995 8.15159 13.9095C8.41204 14.3808 8.87093 14.5917 9.55306 14.5544L9.59027 14.6041L9.57787 14.6289C8.39964 15.8443 6.97336 16.39 5.31144 16.2784L5.28664 16.2908C4.26964 16.2784 3.17823 15.7947 2 14.8273C3.17823 16.5264 4.75333 17.7543 6.70051 18.5356C8.92054 19.2674 11.153 19.3294 13.373 18.6968H13.4102C15.5682 18.0767 17.3914 16.7869 18.9045 14.8521C19.599 13.8475 20.0331 12.8801 20.2067 11.9499C21.3353 11.9871 22.1415 11.6647 22.65 10.9701L22.6376 10.9453C22.2531 11.0818 21.5214 11.0446 20.4424 10.8213V10.6973C21.633 10.5609 22.3399 10.1764 22.5632 9.54387C21.7322 9.86634 20.9137 9.87874 20.1075 9.56868C19.9587 8.45246 19.4254 7.42306 18.5076 6.49288Z" fill="#CAD0DC"/>
<mask id="mask3_338_2766" style="mask-type:alpha" maskUnits="userSpaceOnUse" x="2" y="4" width="21" height="16">
<path fill-rule="evenodd" clip-rule="evenodd" d="M18.5076 6.49288L18.4704 6.46808C17.7014 5.73634 16.7961 5.38907 15.7543 5.43868L15.7171 5.36426L15.7419 5.35186C16.6844 5.14102 17.2426 4.91778 17.4162 4.66973C17.4658 4.47129 17.4038 4.35967 17.1929 4.33486C16.7217 4.39688 16.2752 4.4961 15.8907 4.65733C16.3868 4.33486 16.5728 4.11162 16.4612 4C15.9775 4.0124 15.4442 4.26045 14.8985 4.75655C15.0969 4.40928 15.1838 4.21084 15.1341 4.18604C14.8613 4.35967 14.638 4.55811 14.4396 4.76895C14.0179 5.24024 13.6831 5.67432 13.4226 6.0712L13.4102 6.09601C12.7529 7.17501 12.2816 8.25402 12.0087 9.35784L11.9095 9.44465L11.8847 9.45706C11.4878 8.96096 11.0041 8.53928 10.4336 8.20441C9.7639 7.75793 8.97015 7.34865 8.05237 6.93937C7.06018 6.41847 6.04318 5.99679 5.02619 5.66192C5.01378 6.81535 5.58429 7.72072 6.68811 8.39045V8.40285C6.30363 8.40285 5.91916 8.46486 5.54709 8.57649C5.6215 9.64309 6.37805 10.3748 7.80432 10.7717L7.79192 10.7965C7.23381 10.7593 6.77492 10.9577 6.41526 11.367C6.88655 12.2848 7.71751 12.7189 8.92054 12.6941C8.68489 12.8181 8.49886 12.9421 8.37484 13.091C8.15159 13.3266 8.07718 13.5995 8.15159 13.9095C8.41204 14.3808 8.87093 14.5917 9.55306 14.5544L9.59027 14.6041L9.57787 14.6289C8.39964 15.8443 6.97336 16.39 5.31144 16.2784L5.28664 16.2908C4.26964 16.2784 3.17823 15.7947 2 14.8273C3.17823 16.5264 4.75333 17.7543 6.70051 18.5356C8.92054 19.2674 11.153 19.3294 13.373 18.6968H13.4102C15.5682 18.0767 17.3914 16.7869 18.9045 14.8521C19.599 13.8475 20.0331 12.8801 20.2067 11.9499C21.3353 11.9871 22.1415 11.6647 22.65 10.9701L22.6376 10.9453C22.2531 11.0818 21.5214 11.0446 20.4424 10.8213V10.6973C21.633 10.5609 22.3399 10.1764 22.5632 9.54387C21.7322 9.86634 20.9137 9.87874 20.1075 9.56868C19.9587 8.45246 19.4254 7.42306 18.5076 6.49288Z" fill="white"/>
</mask>
<g mask="url(#mask3_338_2766)">
<rect width="24" height="24" fill="#37393B"/>
</g>
</svg>
