<svg width="184" height="35" viewBox="0 0 184 35" fill="none" xmlns="http://www.w3.org/2000/svg">
<path d="M0 31.9526V13.5476C0 12.6409 0.210332 11.9924 0.630997 11.6021C1.06303 11.2004 1.76793 10.9995 2.74569 10.9995H7.46964C10.835 10.9995 13.376 11.9924 15.0928 13.978C16.8209 15.9637 17.685 18.8906 17.685 22.7587C17.685 26.6268 16.8209 29.5537 15.0928 31.5394C13.376 33.5136 10.835 34.5007 7.46964 34.5007H2.74569C1.76793 34.5007 1.06303 34.3056 0.630997 33.9153C0.210332 33.5136 0 32.8594 0 31.9526ZM2.98444 31.8149H7.3332C9.78898 31.8149 11.6194 31.0688 12.8246 29.5766C14.0411 28.073 14.6494 25.8004 14.6494 22.7587C14.6494 16.6983 12.2106 13.6681 7.3332 13.6681H2.98444V31.8149Z" fill="#37393B"/>
<path d="M26.1765 33.02C26.1765 33.5366 26.0457 33.944 25.7842 34.2425C25.5341 34.5294 25.176 34.6729 24.7098 34.6729C24.2551 34.6729 23.8969 34.5294 23.6354 34.2425C23.3739 33.944 23.2432 33.5366 23.2432 33.02V17.8863C23.2432 17.3813 23.3739 16.9795 23.6354 16.6811C23.9083 16.3827 24.2721 16.2335 24.7269 16.2335C25.1817 16.2335 25.5341 16.3769 25.7842 16.6639C26.0344 16.9508 26.1594 17.3468 26.1594 17.8519V18.5406H26.2447C27.1883 16.9222 28.5072 16.113 30.2012 16.113C30.7128 16.113 31.1335 16.2163 31.4632 16.4229C31.8498 16.6524 32.043 17.014 32.043 17.5075C32.043 18.0355 31.8498 18.4086 31.4632 18.6266C31.179 18.7873 30.7469 18.8677 30.1671 18.8677C27.5067 18.8906 26.1765 20.3656 26.1765 23.2924V33.02Z" fill="#37393B"/>
<path d="M33.6959 32.8479C33.6959 32.2969 33.8892 31.8263 34.2757 31.4361C34.6623 31.0458 35.1228 30.8507 35.6571 30.8507C36.2028 30.8507 36.669 31.0458 37.0555 31.4361C37.4421 31.8263 37.6354 32.2969 37.6354 32.8479C37.6354 33.3873 37.4421 33.8522 37.0555 34.2425C36.669 34.6327 36.2028 34.8278 35.6571 34.8278C35.1228 34.8278 34.6623 34.6327 34.2757 34.2425C33.8892 33.8522 33.6959 33.3873 33.6959 32.8479Z" fill="#37393B"/>
<path d="M42.5114 29.6627C42.5114 29.0774 42.6877 28.601 43.0401 28.2337C43.3926 27.8549 43.8303 27.6656 44.3533 27.6656C45.0809 27.6656 45.8199 28.073 46.5703 28.888C47.9005 30.4375 49.5945 31.2123 51.6524 31.2123C53.0167 31.2123 54.0683 30.9483 54.8073 30.4203C55.5577 29.8923 55.9329 29.152 55.9329 28.1993C55.9329 27.4073 55.643 26.7588 55.0632 26.2538C54.4947 25.7373 53.5795 25.3298 52.3175 25.0314L48.8385 24.1705C44.8365 23.2408 42.8355 21.0772 42.8355 17.6797C42.8355 15.5218 43.6143 13.7944 45.1719 12.4974C46.7295 11.2004 48.8044 10.5519 51.3966 10.5519C52.795 10.5519 54.0854 10.747 55.2678 11.1372C56.4616 11.5275 57.4393 12.0784 58.2011 12.7901C59.2812 13.7772 59.8212 14.8274 59.8212 15.9408C59.8212 16.4803 59.6507 16.9222 59.3096 17.2665C58.9685 17.5994 58.5194 17.7658 57.9623 17.7658C57.2347 17.7658 56.6094 17.4329 56.0864 16.7672C55.0063 15.1373 53.4658 14.3224 51.4648 14.3224C50.2596 14.3224 49.2932 14.5921 48.5656 15.1316C47.8493 15.6711 47.4912 16.3999 47.4912 17.3181C47.4912 18.8218 48.5656 19.8203 50.7144 20.3139L54.2105 21.1575C56.3479 21.6511 57.9282 22.4316 58.9515 23.499C59.9747 24.555 60.4863 25.9496 60.4863 27.6828C60.4863 29.921 59.6677 31.7001 58.0305 33.02C56.3934 34.34 54.182 35 51.3966 35C49.8844 35 48.4917 34.7991 47.2183 34.3974C45.945 33.9957 44.9274 33.4275 44.1657 32.6929C43.0628 31.6714 42.5114 30.6613 42.5114 29.6627Z" fill="#37393B"/>
<path d="M91.3867 32.1764C91.3867 32.9799 91.1878 33.5997 90.7898 34.0358C90.4033 34.4605 89.8519 34.6729 89.1356 34.6729C88.4193 34.6729 87.8679 34.4605 87.4814 34.0358C87.0948 33.5997 86.9015 32.9799 86.9015 32.1764V23.1031C86.9015 22.0241 86.6287 21.1862 86.0829 20.5894C85.5372 19.9925 84.7755 19.6941 83.7977 19.6941C82.8313 19.6941 82.0468 20.0327 81.4443 20.7099C80.8531 21.3756 80.5575 22.2594 80.5575 23.3613V32.1764C80.5575 32.9913 80.3699 33.6112 79.9947 34.0358C79.6195 34.4605 79.0795 34.6729 78.3746 34.6729C77.6697 34.6729 77.1296 34.4605 76.7544 34.0358C76.3906 33.5997 76.2087 32.9799 76.2087 32.1764V23.1891C76.2087 22.1102 75.9245 21.2608 75.356 20.641C74.7989 20.0097 74.0315 19.6941 73.0537 19.6941C72.0987 19.6941 71.3256 20.027 70.7344 20.6927C70.1545 21.3584 69.8646 22.2422 69.8646 23.3441V32.1764C69.8646 32.9799 69.6657 33.5997 69.2677 34.0358C68.8812 34.4605 68.3298 34.6729 67.6135 34.6729C66.8972 34.6729 66.3401 34.4605 65.9422 34.0358C65.5557 33.5997 65.3624 32.9799 65.3624 32.1764V18.5061C65.3624 17.7486 65.5613 17.1517 65.9593 16.7155C66.3572 16.2794 66.8972 16.0613 67.5794 16.0613C68.2388 16.0613 68.7561 16.2679 69.1313 16.6811C69.5179 17.0943 69.7282 17.6682 69.7623 18.4028V19.2637H69.984C70.2796 18.2421 70.8708 17.4329 71.7576 16.8361C72.6444 16.2392 73.7018 15.9408 74.9297 15.9408C76.1917 15.9408 77.2604 16.2507 78.1358 16.8705C79.0226 17.4788 79.6138 18.3167 79.9094 19.3842H80.1141C80.512 18.3167 81.1941 17.4788 82.1605 16.8705C83.1269 16.2507 84.2582 15.9408 85.5543 15.9408C87.3734 15.9408 88.8002 16.4573 89.8348 17.4903C90.8694 18.5119 91.3867 19.9294 91.3867 21.7429V32.1764Z" fill="#37393B"/>
<path d="M107.092 32.1764C106.637 32.9913 105.978 33.6226 105.114 34.0703C104.261 34.5179 103.278 34.7417 102.163 34.7417C100.401 34.7417 98.9744 34.231 97.8829 33.2094C96.7915 32.1879 96.2458 30.845 96.2458 29.1807C96.2458 27.4934 96.8313 26.1619 98.0023 25.1863C99.1734 24.2107 100.782 23.7229 102.829 23.7229H107.126V22.225C107.126 21.3067 106.848 20.6123 106.291 20.1417C105.745 19.6597 104.955 19.4186 103.92 19.4186C102.738 19.4186 101.623 19.895 100.577 20.8476C100.077 21.2494 99.5031 21.4502 98.855 21.4502C98.3661 21.4502 97.9739 21.301 97.6783 21.0026C97.3941 20.7042 97.2519 20.3196 97.2519 19.849C97.2519 18.6668 98.025 17.6797 99.5713 16.8877C100.765 16.2564 102.311 15.9408 104.21 15.9408C106.575 15.9408 108.4 16.4917 109.684 17.5936C110.969 18.684 111.611 20.2393 111.611 22.2594V32.2453C111.611 33.0258 111.418 33.6284 111.032 34.0531C110.656 34.4663 110.122 34.6729 109.428 34.6729C108.826 34.6729 108.337 34.5122 107.962 34.1908C107.598 33.8694 107.382 33.4103 107.314 32.8134V32.1764H107.092ZM100.714 28.9052C100.714 29.6627 100.987 30.2825 101.532 30.7646C102.078 31.2352 102.789 31.4705 103.664 31.4705C104.642 31.4705 105.461 31.1778 106.12 30.5924C106.791 29.9956 107.126 29.2667 107.126 28.4059V26.512H103.647C102.726 26.512 102.004 26.7244 101.481 27.149C100.97 27.5737 100.714 28.1591 100.714 28.9052Z" fill="#37393B"/>
<path d="M121.723 32.1764C121.723 32.9684 121.524 33.5825 121.126 34.0186C120.728 34.4548 120.165 34.6729 119.438 34.6729C118.722 34.6729 118.176 34.4605 117.801 34.0358C117.425 33.5997 117.238 32.9799 117.238 32.1764V18.575C117.238 17.7715 117.431 17.1517 117.818 16.7155C118.204 16.2794 118.75 16.0613 119.455 16.0613C120.114 16.0613 120.626 16.2507 120.99 16.6295C121.365 17.0082 121.575 17.5534 121.621 18.2651V18.6955H121.808C122.172 17.8002 122.678 17.1173 123.326 16.6467C123.974 16.1761 124.725 15.9408 125.577 15.9408C126.237 15.9408 126.765 16.1072 127.163 16.4401C127.595 16.7844 127.811 17.2894 127.811 17.9552C127.811 18.6209 127.595 19.1145 127.163 19.4358C126.811 19.6998 126.265 19.8433 125.526 19.8663C122.991 19.9237 121.723 21.3297 121.723 24.0844V32.1764Z" fill="#37393B"/>
<path d="M134.018 29.6111V19.9179H133.097C132.494 19.9179 132.022 19.763 131.681 19.4531C131.351 19.1317 131.187 18.6955 131.187 18.1446C131.187 17.5936 131.351 17.1632 131.681 16.8533C132.022 16.5319 132.494 16.3712 133.097 16.3712H134.103V13.9953C134.103 13.2148 134.29 12.6122 134.666 12.1875C135.052 11.7628 135.592 11.5505 136.286 11.5505C136.991 11.5505 137.531 11.7628 137.906 12.1875C138.292 12.6122 138.486 13.2148 138.486 13.9953V16.3712H140.276C140.89 16.3712 141.362 16.5319 141.692 16.8533C142.033 17.1632 142.203 17.5936 142.203 18.1446C142.203 18.6955 142.033 19.1317 141.692 19.4531C141.362 19.763 140.89 19.9179 140.276 19.9179H138.52V29.1118C138.52 29.9382 138.651 30.5121 138.912 30.8335C139.174 31.1549 139.64 31.3156 140.31 31.3156C140.47 31.3156 140.674 31.3041 140.924 31.2811C141.175 31.2582 141.368 31.2467 141.504 31.2467C141.902 31.2467 142.221 31.373 142.459 31.6255C142.709 31.878 142.834 32.2108 142.834 32.6241C142.834 33.3357 142.527 33.8752 141.914 34.2425C141.277 34.6557 140.35 34.8623 139.134 34.8623C137.337 34.8623 136.036 34.4548 135.228 33.6399C134.421 32.8134 134.018 31.4705 134.018 29.6111Z" fill="#37393B"/>
<path d="M154.566 15.8375C157.067 15.8375 159.08 16.5893 160.603 18.0929C162.138 19.5965 162.906 21.6454 162.906 24.2394V26.3915C162.906 29.0544 162.144 31.1377 160.62 32.6413C159.097 34.1449 157.079 34.8967 154.566 34.8967C152.042 34.8967 150.019 34.1506 148.495 32.6585C146.972 31.1549 146.21 29.0716 146.21 26.4087V24.2566C146.21 21.6511 146.972 19.5965 148.495 18.0929C150.03 16.5893 152.054 15.8375 154.566 15.8375ZM154.566 19.367C153.418 19.367 152.508 19.8146 151.838 20.7099C151.167 21.5937 150.831 22.8046 150.831 24.3427V26.3743C150.831 27.9238 151.161 29.1462 151.821 30.0415C152.491 30.9253 153.407 31.3672 154.566 31.3672C155.737 31.3672 156.647 30.9253 157.295 30.0415C157.954 29.1577 158.284 27.9353 158.284 26.3743V24.3427C158.284 22.7932 157.954 21.5765 157.295 20.6927C156.635 19.8089 155.726 19.367 154.566 19.367Z" fill="#37393B"/>
<path d="M184 32.1936C184 32.9971 183.807 33.6112 183.42 34.0358C183.034 34.4605 182.482 34.6729 181.766 34.6729C181.038 34.6729 180.481 34.4605 180.095 34.0358C179.708 33.5997 179.515 32.9799 179.515 32.1764V23.499C179.515 22.3053 179.231 21.3871 178.662 20.7443C178.105 20.0901 177.303 19.763 176.258 19.763C175.086 19.763 174.16 20.1762 173.478 21.0026C172.796 21.8175 172.454 22.9309 172.454 24.3427V32.1764C172.454 32.9799 172.256 33.5997 171.858 34.0358C171.471 34.4605 170.92 34.6729 170.203 34.6729C169.487 34.6729 168.93 34.4605 168.532 34.0358C168.146 33.5997 167.952 32.9799 167.952 32.1764V18.4889C167.952 17.7428 168.151 17.1517 168.549 16.7155C168.947 16.2794 169.487 16.0613 170.169 16.0613C170.84 16.0613 171.363 16.2564 171.738 16.6467C172.125 17.0369 172.329 17.5994 172.352 18.3339V19.4531H172.574C172.926 18.3626 173.58 17.5075 174.535 16.8877C175.49 16.2564 176.633 15.9408 177.963 15.9408C179.884 15.9408 181.368 16.4917 182.414 17.5936C183.471 18.6955 184 20.2508 184 22.2594V32.1936Z" fill="#37393B"/>
<path d="M154.038 10.1042C154.038 10.4055 153.966 10.6358 153.821 10.7951C153.676 10.9586 153.467 11.0404 153.194 11.0404C152.925 11.0404 152.719 10.9586 152.574 10.7951C152.429 10.6358 152.356 10.4055 152.356 10.1042V2.6342C152.356 2.3329 152.426 2.10047 152.567 1.93691C152.712 1.77335 152.917 1.69157 153.181 1.69157C153.428 1.69157 153.622 1.76259 153.763 1.90463C153.908 2.04237 153.991 2.24467 154.012 2.51153V2.8408H154.096C154.232 2.47064 154.477 2.1801 154.831 1.96919C155.185 1.75398 155.598 1.64638 156.072 1.64638C156.86 1.64638 157.479 1.91754 157.926 2.45988C158.374 2.99791 158.598 3.74254 158.598 4.69378V5.64287C158.598 6.59411 158.372 7.3409 157.92 7.88323C157.468 8.42557 156.843 8.69673 156.046 8.69673C155.581 8.69673 155.181 8.59774 154.844 8.39974C154.511 8.20175 154.27 7.92197 154.121 7.56041H154.038V10.1042ZM154.038 5.6687C154.038 6.17229 154.17 6.57689 154.435 6.88249C154.699 7.18379 155.046 7.33444 155.477 7.33444C155.92 7.33444 156.264 7.17303 156.507 6.85021C156.754 6.52739 156.878 6.07114 156.878 5.48146V4.86165C156.878 4.27197 156.754 3.81572 156.507 3.4929C156.264 3.17008 155.916 3.00867 155.464 3.00867C155.021 3.00867 154.671 3.16362 154.415 3.47353C154.164 3.78343 154.038 4.21171 154.038 4.75835V5.6687Z" fill="#9099AD"/>
<path d="M163.74 7.73474C163.569 8.04034 163.322 8.27707 162.998 8.44494C162.678 8.6128 162.309 8.69673 161.891 8.69673C161.231 8.69673 160.696 8.5052 160.286 8.12212C159.877 7.73904 159.672 7.23544 159.672 6.61133C159.672 5.9786 159.892 5.47931 160.331 5.11345C160.77 4.74759 161.373 4.56466 162.141 4.56466H163.752V4.00295C163.752 3.65861 163.648 3.3982 163.439 3.22173C163.234 3.04095 162.938 2.95056 162.55 2.95056C162.107 2.95056 161.689 3.12919 161.297 3.48644C161.109 3.63709 160.894 3.71241 160.651 3.71241C160.467 3.71241 160.32 3.65646 160.209 3.54455C160.103 3.43264 160.05 3.28845 160.05 3.11197C160.05 2.66863 160.34 2.29847 160.919 2.00148C161.367 1.76474 161.947 1.64638 162.659 1.64638C163.546 1.64638 164.23 1.85298 164.712 2.26619C165.193 2.67509 165.434 3.25832 165.434 4.01586V7.76056C165.434 8.05325 165.362 8.27922 165.217 8.43848C165.076 8.59343 164.876 8.67091 164.616 8.67091C164.39 8.67091 164.206 8.61065 164.066 8.49013C163.929 8.36961 163.848 8.19744 163.823 7.97362V7.73474H163.74ZM161.348 6.50802C161.348 6.7921 161.45 7.02453 161.655 7.20531C161.859 7.38179 162.126 7.47002 162.454 7.47002C162.821 7.47002 163.128 7.36027 163.375 7.14075C163.627 6.91693 163.752 6.64361 163.752 6.32079V5.61059H162.448C162.102 5.61059 161.832 5.69022 161.636 5.84947C161.444 6.00873 161.348 6.22825 161.348 6.50802Z" fill="#9099AD"/>
<path d="M168.702 7.73474C168.702 8.03173 168.628 8.26201 168.479 8.42557C168.329 8.58913 168.118 8.67091 167.845 8.67091C167.577 8.67091 167.372 8.59128 167.231 8.43202C167.091 8.26846 167.02 8.03603 167.02 7.73474V2.6342C167.02 2.3329 167.093 2.10047 167.238 1.93691C167.383 1.77335 167.587 1.69157 167.852 1.69157C168.099 1.69157 168.291 1.76259 168.427 1.90463C168.568 2.04667 168.647 2.25112 168.664 2.51799V2.67939H168.734C168.871 2.34366 169.06 2.08756 169.303 1.91109C169.547 1.73461 169.828 1.64638 170.148 1.64638C170.395 1.64638 170.593 1.70879 170.742 1.83361C170.904 1.96274 170.985 2.15212 170.985 2.40177C170.985 2.65142 170.904 2.8365 170.742 2.95702C170.61 3.05602 170.406 3.10982 170.128 3.11843C169.178 3.13995 168.702 3.66722 168.702 4.70024V7.73474Z" fill="#9099AD"/>
<path d="M172.789 6.77274V3.1378H172.444C172.218 3.1378 172.041 3.07969 171.913 2.96348C171.789 2.84296 171.727 2.67939 171.727 2.47279C171.727 2.26619 171.789 2.10478 171.913 1.98856C172.041 1.86804 172.218 1.80778 172.444 1.80778H172.821V0.916805C172.821 0.624116 172.891 0.398143 173.032 0.238886C173.177 0.0796286 173.379 0 173.639 0C173.904 0 174.106 0.0796286 174.247 0.238886C174.392 0.398143 174.464 0.624116 174.464 0.916805V1.80778H175.136C175.366 1.80778 175.543 1.86804 175.667 1.98856C175.795 2.10478 175.859 2.26619 175.859 2.47279C175.859 2.67939 175.795 2.84296 175.667 2.96348C175.543 3.07969 175.366 3.1378 175.136 3.1378H174.477V6.5855C174.477 6.89541 174.526 7.11062 174.624 7.23114C174.722 7.35166 174.897 7.41192 175.149 7.41192C175.208 7.41192 175.285 7.40761 175.379 7.399C175.473 7.3904 175.545 7.38609 175.596 7.38609C175.746 7.38609 175.865 7.43344 175.955 7.52813C176.048 7.62282 176.095 7.74765 176.095 7.9026C176.095 8.16946 175.98 8.37176 175.75 8.5095C175.511 8.66445 175.164 8.74193 174.707 8.74193C174.034 8.74193 173.546 8.58913 173.243 8.28353C172.94 7.97362 172.789 7.47002 172.789 6.77274Z" fill="#9099AD"/>
<path d="M176.843 7.23114C176.843 7.04175 176.901 6.88895 177.016 6.77274C177.136 6.65652 177.291 6.59841 177.483 6.59841C177.662 6.59841 177.888 6.70602 178.161 6.92123C178.638 7.30431 179.135 7.49585 179.651 7.49585C180.001 7.49585 180.276 7.42698 180.476 7.28925C180.676 7.15151 180.777 6.96212 180.777 6.72108C180.777 6.30788 180.47 6.03456 179.856 5.90112L178.781 5.65578C178.155 5.51805 177.69 5.29207 177.387 4.97786C177.084 4.66365 176.933 4.2526 176.933 3.7447C176.933 3.09906 177.182 2.58255 177.681 2.19517C178.18 1.80348 178.847 1.60764 179.683 1.60764C180.348 1.60764 180.93 1.74322 181.429 2.01439C181.672 2.14782 181.862 2.30493 181.998 2.4857C182.134 2.66648 182.203 2.85587 182.203 3.05386C182.203 3.23464 182.143 3.37884 182.024 3.48644C181.909 3.59405 181.755 3.64785 181.563 3.64785C181.371 3.64785 181.141 3.55101 180.872 3.35731C180.634 3.17223 180.416 3.0431 180.22 2.96993C180.028 2.89246 179.819 2.85372 179.593 2.85372C179.274 2.85372 179.02 2.92474 178.832 3.06678C178.649 3.20882 178.557 3.40036 178.557 3.64139C178.557 3.83939 178.626 3.99865 178.762 4.11917C178.898 4.23969 179.112 4.33438 179.402 4.40325L180.623 4.66796C181.228 4.80139 181.676 5.02521 181.966 5.33942C182.256 5.64933 182.401 6.06038 182.401 6.57259C182.401 7.24836 182.147 7.78208 181.64 8.17377C181.137 8.56115 180.444 8.75484 179.561 8.75484C178.811 8.75484 178.172 8.6128 177.643 8.32872C177.11 8.04464 176.843 7.67878 176.843 7.23114Z" fill="#9099AD"/>
</svg>
