<svg width="26" height="23" viewBox="0 0 26 23" fill="none" xmlns="http://www.w3.org/2000/svg">
<path d="M13.0001 2.24376C11.6381 0.991395 9.85536 0.296323 8.0051 0.296265C7.02577 0.297284 6.05632 0.491964 5.15252 0.8691C4.24872 1.24624 3.42843 1.79838 2.73885 2.49377C-0.202402 5.44752 -0.201152 10.0675 2.74135 13.0088L11.9063 22.1738C12.1188 22.5475 12.5288 22.7888 13.0001 22.7888C13.1936 22.7869 13.384 22.7397 13.5559 22.6509C13.7278 22.5621 13.8765 22.4342 13.9901 22.2775L23.2589 13.0088C26.2013 10.0663 26.2013 5.44752 23.2563 2.48876C22.5671 1.79466 21.7475 1.24364 20.8446 0.867369C19.9417 0.491102 18.9733 0.297014 17.9951 0.296265C16.1449 0.296567 14.3622 0.991606 13.0001 2.24376ZM21.4888 4.25626C23.4426 6.22002 23.4438 9.28752 21.4913 11.2413L13.0001 19.7325L4.50885 11.2413C2.55635 9.28752 2.5576 6.22002 4.50635 4.26127C5.45635 3.31627 6.69885 2.79627 8.0051 2.79627C9.31135 2.79627 10.5488 3.31626 11.4913 4.25876L12.1163 4.88376C12.2323 4.99995 12.3701 5.09212 12.5217 5.15501C12.6734 5.2179 12.8359 5.25027 13.0001 5.25027C13.1643 5.25027 13.3268 5.2179 13.4785 5.15501C13.6301 5.09212 13.7679 4.99995 13.8838 4.88376L14.5088 4.25876C16.3988 2.37251 19.6013 2.37751 21.4888 4.25626Z" fill="#37393B"/>
</svg>
